<?xml version="1.0" encoding="UTF-8" standalone="no"?>
<svg
   width="1920"
   height="1080"
   fill="currentColor"
   class="bi bi-battery-charging"
   viewBox="0 0 1920 1080"
   version="1.1"
   id="svg10"
   sodipodi:docname="battery.svg"
   inkscape:version="1.2.1 (9c6d41e, 2022-07-14)"
   inkscape:export-filename="battery.png"
   inkscape:export-xdpi="96"
   inkscape:export-ydpi="96"
   xmlns:inkscape="http://www.inkscape.org/namespaces/inkscape"
   xmlns:sodipodi="http://sodipodi.sourceforge.net/DTD/sodipodi-0.dtd"
   xmlns="http://www.w3.org/2000/svg"
   xmlns:svg="http://www.w3.org/2000/svg">
  <defs
     id="defs14" />
  <sodipodi:namedview
     id="namedview12"
     pagecolor="#ffffff"
     bordercolor="#000000"
     borderopacity="0.25"
     inkscape:showpageshadow="2"
     inkscape:pageopacity="0.0"
     inkscape:pagecheckerboard="0"
     inkscape:deskcolor="#d1d1d1"
     showgrid="false"
     showguides="true"
     inkscape:zoom="0.24681614"
     inkscape:cx="273.48292"
     inkscape:cy="137.75436"
     inkscape:window-width="1666"
     inkscape:window-height="908"
     inkscape:window-x="0"
     inkscape:window-y="38"
     inkscape:window-maximized="0"
     inkscape:current-layer="svg10">
    <sodipodi:guide
       position="959.9209,1284.2653"
       orientation="1,0"
       id="guide180"
       inkscape:locked="false" />
  </sodipodi:namedview>
  <g
     id="g178"
     transform="matrix(77.760192,0,0,77.760192,341.92101,-71.336009)">
    <path
       d="m 9.585,2.568 a 0.5,0.5 0 0 1 0.226,0.58 L 8.677,6.832 h 1.99 a 0.5,0.5 0 0 1 0.364,0.843 L 5.697,13.342 A 0.5,0.5 0 0 1 4.855,12.852 L 5.99,9.167 H 4 A 0.5,0.5 0 0 1 3.636,8.324 L 8.969,2.657 a 0.5,0.5 0 0 1 0.616,-0.09 z"
       id="path2" />
    <path
       d="M 2,4 H 6.332 L 5.392,5 H 2 A 1,1 0 0 0 1,6 v 4 a 1,1 0 0 0 1,1 H 4.38 L 4.072,12 H 2 A 2,2 0 0 1 0,10 V 6 A 2,2 0 0 1 2,4 Z"
       id="path4" />
    <path
       d="M 2,6 H 4.45 L 2.908,7.639 A 1.5,1.5 0 0 0 3.313,10 H 2 Z M 10.595,4 10.287,5 H 12 a 1,1 0 0 1 1,1 v 4 a 1,1 0 0 1 -1,1 H 9.276 L 8.334,12 H 12 a 2,2 0 0 0 2,-2 V 6 A 2,2 0 0 0 12,4 Z"
       id="path6" />
    <path
       d="M 12,10 H 10.217 L 11.759,8.361 C 11.856,8.258 11.937,8.143 12,8.021 Z M 12,6.646 V 6 H 11.354 A 1.5,1.5 0 0 1 12,6.646 Z M 16,8 a 1.5,1.5 0 0 1 -1.5,1.5 v -3 A 1.5,1.5 0 0 1 16,8 Z"
       id="path8" />
  </g>
</svg>
