<?xml version="1.0" encoding="UTF-8" standalone="no"?>
<svg
   width="1920"
   height="1080"
   fill="currentColor"
   class="bi bi-droplet"
   viewBox="0 0 1920 1080"
   version="1.1"
   id="svg6"
   sodipodi:docname="droplet.svg"
   inkscape:version="1.2.1 (9c6d41e, 2022-07-14)"
   xmlns:inkscape="http://www.inkscape.org/namespaces/inkscape"
   xmlns:sodipodi="http://sodipodi.sourceforge.net/DTD/sodipodi-0.dtd"
   xmlns="http://www.w3.org/2000/svg"
   xmlns:svg="http://www.w3.org/2000/svg">
  <defs
     id="defs10" />
  <sodipodi:namedview
     id="namedview8"
     pagecolor="#ffffff"
     bordercolor="#000000"
     borderopacity="0.25"
     inkscape:showpageshadow="2"
     inkscape:pageopacity="0.0"
     inkscape:pagecheckerboard="0"
     inkscape:deskcolor="#d1d1d1"
     showgrid="false"
     showguides="true"
     inkscape:zoom="0.45055191"
     inkscape:cx="851.17828"
     inkscape:cy="597.04552"
     inkscape:window-width="1615"
     inkscape:window-height="812"
     inkscape:window-x="0"
     inkscape:window-y="38"
     inkscape:window-maximized="0"
     inkscape:current-layer="svg6">
    <sodipodi:guide
       position="974.98362,1265.0388"
       orientation="1,0"
       id="guide174"
       inkscape:locked="false" />
  </sodipodi:namedview>
  <g
     id="g172"
     transform="matrix(54.585562,0,0,54.585562,541.4916,109.8022)">
    <path
       fill-rule="evenodd"
       d="M 7.21,0.8 C 7.69,0.295 8,0 8,0 c 0.109,0.363 0.234,0.708 0.371,1.038 0.812,1.946 2.073,3.35 3.197,4.6 C 12.878,7.096 14,8.345 14,10 A 6,6 0 0 1 2,10 C 2,6.668 5.58,2.517 7.21,0.8 Z M 7.623,1.821 A 31.25,31.25 0 0 0 5.794,3.99 C 5.068,4.94 4.358,5.998 3.834,7.06 3.304,8.133 3,9.138 3,10 a 5,5 0 0 0 10,0 C 13,8.799 12.204,7.843 10.819,6.3 L 10.789,6.268 C 9.75,5.11 8.5,3.72 7.623,1.82 Z"
       id="path2" />
    <path
       fill-rule="evenodd"
       d="M 4.553,7.776 C 5.373,6.135 6.27,5.023 6.646,4.646 l 0.708,0.708 c -0.29,0.29 -1.128,1.311 -1.907,2.87 z"
       id="path4" />
  </g>
</svg>
